{"glyphs":{":":{"x_min":0,"x_max":295,"ha":295,"o":"m 198 348 b 217 341 226 321 219 302 l 208 272 b 203 257 190 249 175 249 l 169 249 b 166 249 164 250 162 251 b 143 258 134 278 141 297 l 151 326 b 158 345 179 355 198 348 z m 133 162 b 152 155 161 135 154 116 l 144 87 b 137 72 125 63 110 63 b 106 63 102 64 97 65 b 78 72 69 93 76 112 l 87 141 b 94 160 114 169 133 162 z"},"$":{"x_min":0,"x_max":529,"ha":529,"o":"m 468 751 l 439 673 b 467 650 485 615 485 576 b 485 555 469 539 448 539 b 428 539 412 555 412 576 b 412 581 411 586 409 591 l 352 432 l 373 378 b 394 321 414 262 414 206 b 414 150 391 98 354 61 b 317 24 265 0 208 0 b 151 0 99 24 62 61 b 25 98 1 150 1 206 b 1 263 25 315 62 352 b 99 389 151 413 208 413 b 228 413 245 396 245 376 b 245 356 228 339 208 339 b 172 339 138 324 114 300 b 90 276 75 242 75 206 b 75 170 90 137 114 113 b 138 89 172 74 208 74 b 244 74 277 89 301 113 b 325 137 340 170 340 206 b 340 249 323 304 304 352 l 265 452 l 265 453 b 245 509 236 544 236 576 b 236 611 250 641 273 664 b 296 687 326 700 361 700 l 371 700 l 399 776 b 406 796 427 806 446 799 b 465 792 475 770 468 751 z m 314 544 l 343 623 b 324 616 310 599 310 576 b 310 565 311 554 314 544 z m 173 156 l 229 310 b 236 329 257 339 276 332 b 295 325 305 304 298 284 l 242 131 b 237 116 222 107 207 107 b 202 107 198 108 195 109 b 176 116 166 137 173 156 z"},"?":{"x_min":0,"x_max":488,"ha":488,"o":"m 448 636 b 479 593 484 533 461 473 b 440 416 409 379 374 352 b 338 325 299 309 262 293 b 231 280 204 269 181 253 b 157 237 140 217 129 186 l 115 148 b 110 133 96 124 81 124 b 77 124 73 125 69 127 b 50 134 40 154 47 173 l 61 211 b 77 256 104 286 135 309 b 166 332 201 345 234 360 b 269 373 301 387 329 408 b 356 428 378 454 393 497 b 408 536 405 571 389 595 b 373 617 348 628 313 628 b 272 628 227 610 189 582 b 151 554 119 514 103 473 b 96 454 76 444 57 451 b 38 458 29 478 36 497 b 56 554 98 605 148 642 b 198 678 256 700 313 700 b 372 700 419 677 448 636 z m 61 106 b 80 99 90 79 83 60 l 70 24 b 65 9 51 0 36 0 b 33 0 29 1 24 2 b 5 9 -5 29 2 48 l 15 84 b 22 103 42 113 61 106 z"},"<":{"x_min":0,"x_max":381,"ha":381,"o":"m 134 0 b 119 0 108 7 101 21 l 3 230 b -4 245 0 262 13 273 l 265 489 b 280 501 303 500 316 485 b 329 469 327 447 312 434 l 80 236 l 166 51 b 175 32 168 12 149 3 b 144 1 139 0 134 0 z"},"'":{"x_min":0,"x_max":251,"ha":251,"o":"m 128 509 b 125 509 120 510 115 511 b 96 518 87 538 94 557 l 149 709 b 156 728 176 738 195 731 b 214 724 224 704 217 685 l 161 533 b 156 518 143 509 128 509 z"},"=":{"x_min":0,"x_max":517,"ha":517,"o":"m 156 375 l 435 375 b 455 375 472 359 472 339 b 472 319 455 303 435 303 l 156 303 b 136 303 119 319 119 339 b 119 359 136 375 156 375 z m 86 183 l 365 183 b 385 183 402 167 402 147 b 402 127 385 110 365 110 l 86 110 b 66 110 49 127 49 147 b 49 167 66 183 86 183 z"},"a":{"x_min":0,"x_max":487,"ha":487,"o":"m 533 280 b 552 273 561 253 554 234 l 520 140 b 509 113 489 78 460 50 b 431 22 394 0 351 0 b 317 0 291 12 274 37 b 267 47 262 58 259 70 b 212 27 159 0 108 0 b 23 0 -17 70 -20 142 b -23 213 10 293 48 350 b 86 406 133 449 185 473 b 210 485 235 491 260 491 b 303 491 336 474 360 440 l 363 437 b 363 436 364 435 365 434 l 377 467 b 384 486 404 496 423 489 b 442 482 451 462 444 443 l 334 140 b 329 128 327 116 327 105 b 327 93 329 84 333 78 b 334 77 335 75 337 74 b 339 72 344 71 351 71 b 364 71 385 79 405 95 b 424 111 442 133 453 164 l 487 258 b 494 277 514 287 533 280 z m 108 71 b 137 71 176 90 212 123 b 247 155 281 202 301 258 b 326 327 318 376 302 399 b 292 413 278 420 260 420 b 229 420 192 401 157 369 b 121 336 88 289 68 233 b 41 164 50 115 66 92 b 76 78 90 71 108 71 z"},"L":{"x_min":0,"x_max":755,"ha":755,"o":"m 802 277 b 821 269 828 249 819 230 b 788 163 745 109 692 66 b 635 22 575 0 514 0 b 451 0 403 10 364 23 b 324 36 293 55 264 71 b 261 72 258 74 255 76 b 252 78 249 80 246 81 b 211 60 172 41 127 22 b 127 22 126 22 125 21 b 105 14 83 10 59 10 b 16 10 -25 23 -52 54 b -71 77 -75 107 -63 135 b -44 174 4 201 60 201 b 99 201 131 198 163 190 b 182 186 194 167 189 148 b 185 129 166 117 147 122 b 121 128 92 131 60 131 b 28 131 6 116 1 105 b 0 103 1 101 2 99 b 11 88 28 82 46 81 b 64 80 84 82 100 87 b 161 114 211 140 250 170 b 289 200 317 234 334 279 b 247 311 203 393 222 482 b 231 526 255 568 292 608 b 305 623 326 623 341 610 b 356 597 358 575 343 560 b 292 504 275 440 300 393 b 315 366 337 353 358 346 l 423 523 b 460 624 536 693 620 700 b 675 704 720 679 744 635 b 773 583 771 520 740 457 b 711 397 658 346 593 310 b 562 293 529 281 496 273 b 477 269 458 281 454 300 b 449 319 461 338 480 342 b 536 354 589 384 630 424 b 670 463 717 537 682 601 b 667 628 640 630 625 629 b 604 628 578 618 554 597 b 529 576 505 544 489 499 l 402 260 b 382 204 352 162 309 126 b 334 111 361 98 394 88 b 426 78 463 71 514 71 b 559 71 608 90 650 123 b 692 156 728 204 755 260 b 763 277 783 285 802 277 z"},"3":{"x_min":0,"x_max":491,"ha":491,"o":"m 364 409 b 371 404 378 398 385 391 b 444 330 430 245 405 190 b 380 134 338 86 283 50 b 227 14 173 0 128 0 b 41 0 -5 47 -24 92 b -34 114 -38 139 -37 166 b -36 186 -19 201 1 200 b 20 199 35 182 34 163 b 31 99 73 76 112 72 b 151 68 201 81 243 109 b 285 137 318 174 338 215 b 357 256 365 307 333 342 b 317 358 294 367 265 368 b 256 367 248 366 240 366 b 220 366 204 382 204 402 b 204 422 220 438 240 438 l 251 438 b 252 439 255 439 259 439 b 282 443 303 454 326 469 b 350 486 370 512 382 537 b 393 562 396 588 384 607 b 369 628 337 635 302 624 b 284 619 267 610 250 597 b 234 585 212 589 200 605 b 188 621 192 643 208 655 b 257 691 313 708 364 697 b 399 690 427 672 444 645 b 465 610 469 569 455 527 b 441 485 411 444 368 412 z"},";":{"x_min":0,"x_max":256,"ha":256,"o":"m 168 348 b 187 341 196 321 189 302 l 178 272 b 173 257 160 249 145 249 l 139 249 b 136 249 134 250 132 251 b 113 258 104 278 111 297 l 121 326 b 128 345 149 355 168 348 z m 97 37 b 116 30 126 10 119 -9 l 63 -162 b 58 -177 44 -186 29 -186 b 26 -186 22 -185 17 -184 b -2 -177 -11 -156 -4 -137 l 51 16 b 58 35 78 44 97 37 z"},"J":{"x_min":0,"x_max":468,"ha":468,"o":"m 516 287 b 532 282 544 265 537 242 l 537 241 l 536 241 b 535 239 534 235 532 228 b 529 221 525 210 520 194 b 497 133 455 87 403 51 b 351 14 291 -14 234 -39 b 221 -75 210 -104 202 -127 b 186 -172 185 -180 167 -207 b 149 -235 123 -257 95 -270 b 80 -277 65 -280 49 -280 b 21 -280 -2 -269 -17 -248 b -40 -217 -35 -173 -24 -142 b -11 -106 17 -77 53 -52 b 88 -28 131 -7 178 13 b 188 40 199 68 210 99 b 221 129 232 160 244 192 l 278 286 b 289 317 300 348 311 377 b 336 445 360 513 385 582 b 391 597 398 612 406 625 b 314 617 233 596 173 561 b 92 516 52 454 52 375 b 52 334 69 296 97 269 b 124 241 162 224 203 224 b 223 224 238 208 238 189 b 238 169 223 153 203 153 b 142 153 86 178 46 218 b 6 258 -19 314 -19 375 b -19 479 35 565 138 622 b 227 673 346 699 486 699 b 503 699 515 691 520 674 b 524 659 519 643 506 634 b 493 623 481 610 468 591 b 461 582 456 571 451 558 b 431 501 410 444 389 386 b 370 337 350 280 330 223 b 309 166 288 107 268 54 b 309 74 349 97 382 123 b 414 149 440 179 453 218 l 470 265 l 471 266 b 480 287 500 294 516 287 z m 122 -142 l 129 -123 b 132 -112 137 -98 144 -81 b 93 -108 54 -133 42 -166 b 39 -175 37 -184 37 -191 b 37 -199 38 -205 41 -208 b 41 -209 41 -209 42 -209 b 43 -210 45 -210 49 -210 b 62 -210 79 -201 92 -188 b 104 -175 115 -158 122 -142 z"},"V":{"x_min":0,"x_max":477,"ha":477,"o":"m 612 700 b 632 700 648 684 648 664 b 648 644 632 628 612 628 b 561 628 522 615 495 589 b 486 581 481 574 477 567 b 474 564 473 560 472 557 b 471 556 471 556 471 555 l 322 146 b 314 121 292 84 256 54 b 220 24 169 0 100 0 l 38 0 b 18 0 2 16 2 36 b 2 56 18 72 38 72 b 40 72 42 74 45 78 b 50 86 57 100 61 119 b 63 128 64 138 64 148 l 64 528 l -109 528 b -130 528 -148 510 -148 489 b -148 466 -132 450 -109 450 b -100 450 -91 454 -82 461 b -75 468 -66 472 -56 472 b -37 472 -20 455 -20 436 b -20 426 -24 417 -31 410 b -52 389 -78 378 -109 378 b -140 378 -167 391 -187 411 b -207 431 -220 458 -220 489 b -220 520 -207 547 -187 567 b -167 587 -140 600 -109 600 l 64 600 l 64 614 b 64 638 73 659 89 675 b 105 690 126 700 150 700 b 174 700 195 690 211 675 b 226 659 236 638 236 614 b 236 590 226 569 211 554 b 195 538 174 528 150 528 l 136 528 l 136 148 b 136 123 132 98 123 73 b 174 78 206 102 226 125 b 236 136 243 147 248 156 l 254 169 l 254 170 l 403 580 b 404 583 408 592 415 605 b 428 631 459 660 512 683 b 538 694 571 700 612 700 z m 136 614 l 136 600 l 150 600 b 157 600 163 607 163 614 b 163 623 159 628 150 628 b 141 628 136 623 136 614 z"},"\"":{"x_min":0,"x_max":242,"ha":242,"o":"m 133 698 b 152 691 162 671 155 652 l 99 500 b 94 485 81 476 66 476 b 63 476 59 477 54 478 b 35 485 25 505 32 524 l 88 676 b 95 695 114 705 133 698 z m 247 698 b 266 691 275 671 268 652 l 213 500 b 206 484 195 476 179 476 b 176 476 172 477 167 478 b 148 485 138 505 145 524 l 201 676 b 208 695 228 705 247 698 z"},"7":{"x_min":0,"x_max":412,"ha":412,"o":"m -14 0 b -31 0 -46 11 -49 31 b -51 41 -49 50 -43 58 l 377 628 l 127 628 l 93 571 b 82 552 61 547 44 558 b 25 569 20 590 31 607 l 75 682 b 82 694 92 700 106 700 l 449 700 b 463 700 474 693 482 680 b 489 668 486 653 478 642 l 15 15 b 8 5 -2 0 -14 0 z"},"S":{"x_min":0,"x_max":523,"ha":523,"o":"m 507 586 b 507 574 504 559 491 534 b 478 509 455 473 415 420 b 440 369 462 307 462 230 b 462 167 436 109 395 68 b 354 27 296 1 233 1 b 182 1 136 18 97 46 b 89 37 83 30 78 25 b 68 14 64 11 56 -4 b 47 -20 38 -41 32 -62 b 29 -73 27 -83 27 -94 b 27 -114 11 -130 -9 -130 b -29 -130 -45 -114 -45 -94 b -45 -57 -31 -19 -18 9 b -11 23 -5 35 1 44 b 6 53 9 57 10 58 l 13 61 l 46 97 b 19 136 3 181 3 230 b 3 294 29 351 71 393 b 113 435 169 460 233 460 b 253 460 269 444 269 424 b 269 404 253 388 233 388 b 189 388 150 370 122 342 b 93 314 75 274 75 230 b 75 202 83 175 96 151 b 147 207 211 282 274 358 b 287 373 309 375 325 363 b 340 350 342 328 330 313 b 265 233 196 156 145 99 b 170 82 200 72 233 72 b 277 72 316 90 345 119 b 373 147 391 186 391 230 b 391 314 360 374 329 434 b 302 485 278 530 278 586 b 278 618 291 646 312 667 b 332 687 360 700 392 700 b 424 700 452 687 473 667 b 494 646 507 618 507 586 z m 379 492 b 404 527 418 549 426 564 b 430 571 433 577 434 580 b 435 583 435 585 435 586 b 435 610 416 629 392 629 b 369 629 350 609 350 586 b 350 555 362 525 379 492 z"},"Z":{"x_min":0,"x_max":657,"ha":657,"o":"m 702 277 b 721 270 729 250 722 231 b 695 160 657 103 613 63 b 569 23 518 0 467 0 b 414 0 373 10 340 24 b 307 38 280 55 256 72 l 244 81 b 209 60 171 41 127 22 b 126 21 126 21 125 21 b 104 14 82 10 59 10 b 16 10 -25 23 -52 54 b -71 77 -75 107 -63 134 b -44 174 4 200 60 200 b 99 200 133 197 162 190 b 181 185 193 167 188 148 b 184 129 165 117 146 121 b 120 127 91 130 60 130 b 28 130 6 116 1 105 b 0 103 1 101 2 99 b 9 91 24 84 42 81 b 60 78 80 80 100 87 b 163 115 213 140 252 171 b 291 202 318 237 335 284 l 356 343 l 299 343 b 279 343 264 358 264 378 b 264 397 279 413 299 413 l 382 413 l 421 521 b 433 553 455 581 482 605 b 411 604 349 612 297 619 b 264 623 235 627 212 627 b 192 627 175 610 175 589 b 175 568 191 551 212 551 b 222 551 231 555 238 562 b 245 569 254 573 263 573 b 282 573 299 556 299 537 b 299 528 295 519 288 512 b 267 491 242 481 212 481 b 183 481 156 493 136 513 b 116 532 104 558 104 589 b 104 618 116 646 136 666 b 156 686 183 698 212 698 b 225 698 240 697 256 695 l 307 689 b 351 682 400 676 453 676 b 505 675 563 680 623 696 b 628 697 631 698 633 699 b 660 706 672 688 676 677 b 681 666 681 644 657 632 b 656 631 654 630 653 630 l 647 627 b 557 584 504 540 487 497 l 457 413 l 522 413 b 542 413 557 397 557 378 b 557 358 542 343 522 343 l 431 343 l 401 260 b 380 203 349 160 306 124 b 327 109 348 97 373 87 b 397 77 427 70 467 70 b 502 70 539 89 572 122 b 605 155 636 201 656 256 b 663 275 683 284 702 277 z"},"x":{"x_min":0,"x_max":493,"ha":493,"o":"m 538 280 b 557 273 567 253 560 234 l 526 140 b 515 113 495 78 466 50 b 437 22 399 0 356 0 b 305 0 270 32 263 83 l 249 151 l 156 16 b 149 5 140 0 127 0 b 112 0 95 9 92 29 b 90 39 92 48 97 56 l 230 250 l 200 407 l 200 408 b 199 409 199 410 199 411 b 199 412 197 417 196 418 b 195 419 193 419 188 419 b 165 419 129 391 114 351 l 67 221 b 60 202 40 193 21 200 b 2 207 -7 226 0 245 l 47 375 b 58 403 77 432 102 454 b 126 476 156 491 188 491 b 227 491 255 471 266 436 b 269 429 270 425 271 418 l 287 333 l 372 456 b 383 473 405 477 421 466 b 438 455 442 432 431 416 l 306 234 l 333 95 l 333 93 b 336 73 345 71 356 71 b 379 71 401 84 419 103 b 437 122 451 144 458 164 l 493 259 b 500 278 519 287 538 280 z"},")":{"x_min":0,"x_max":386,"ha":386,"o":"m 40 -101 b 36 -101 32 -100 29 -99 b 26 -98 22 -96 18 -95 b -1 -83 -4 -62 11 -43 b 96 76 170 216 229 367 b 278 511 307 644 307 760 b 307 781 325 796 344 796 b 365 796 379 781 379 760 b 379 639 350 493 293 342 b 237 185 157 38 69 -87 b 61 -98 51 -101 40 -101 z"},"&":{"x_min":0,"x_max":600,"ha":600,"o":"m 614 481 b 614 437 593 405 562 379 b 530 353 488 332 445 315 b 468 258 466 196 442 140 b 418 83 373 39 316 16 b 289 5 260 0 230 0 b 199 0 169 6 140 19 b 83 43 39 88 16 145 b -7 202 -6 265 19 321 b 43 378 88 421 145 444 b 168 455 193 459 217 460 b 197 511 199 570 230 619 b 255 659 295 686 339 696 b 382 706 429 699 469 674 b 517 643 547 590 550 533 b 550 513 535 496 515 496 b 495 495 479 511 478 530 b 477 565 459 594 431 613 b 407 628 379 632 354 626 b 329 620 306 605 291 581 b 276 557 273 530 279 505 b 285 480 299 456 323 441 l 324 440 b 340 432 347 412 340 395 b 332 376 312 368 293 376 b 274 385 254 389 233 389 b 212 389 191 385 172 378 b 131 361 102 333 85 293 b 68 254 67 211 83 172 b 100 131 128 102 168 85 b 188 76 209 72 230 72 b 272 72 311 87 341 116 b 371 145 389 187 389 228 b 389 249 385 269 378 288 b 349 276 320 263 300 249 b 279 235 266 219 266 202 b 266 182 250 166 230 166 b 211 166 195 182 195 202 b 195 246 219 279 255 304 b 291 329 338 349 385 368 b 424 384 463 400 493 418 b 523 436 542 456 542 481 b 542 501 558 517 578 517 b 598 517 614 501 614 481 z"},"_":{"x_min":0,"x_max":406,"ha":406,"o":""},"v":{"x_min":0,"x_max":442,"ha":442,"o":"m 488 280 b 507 273 516 253 509 234 l 474 137 b 462 104 437 70 402 44 b 367 18 324 0 276 0 b 221 0 193 22 177 41 b 170 50 165 58 162 66 b 97 23 27 0 -41 0 b -53 0 -63 5 -71 15 b -78 26 -79 37 -75 48 l 78 467 b 85 486 105 496 124 489 b 143 482 152 462 145 443 l 12 77 b 55 88 98 106 138 137 b 148 144 158 151 167 160 l 168 161 b 211 200 242 246 261 294 l 324 467 b 331 486 351 496 370 489 b 389 482 398 462 391 443 l 328 270 b 308 214 272 160 224 116 b 224 104 225 93 232 86 b 243 74 261 71 276 71 b 309 71 339 85 362 103 b 385 121 400 143 407 162 l 442 258 b 449 277 469 287 488 280 z"},"O":{"x_min":0,"x_max":623,"ha":623,"o":"m 673 261 b 688 248 690 226 678 210 b 594 111 482 58 357 58 b 346 58 338 59 327 60 b 267 21 204 0 143 0 b 87 0 39 24 8 68 b -39 137 -44 245 -1 362 b 34 457 92 542 159 603 b 226 663 301 700 372 700 b 457 700 519 647 539 556 b 543 536 531 517 512 513 b 492 509 473 521 469 540 b 461 576 445 599 428 612 b 411 624 389 628 372 628 b 317 628 256 595 201 542 b 145 489 95 417 67 338 b 50 291 41 248 41 207 b 41 126 78 72 143 72 b 198 72 252 92 305 132 b 358 172 399 225 419 281 b 434 324 437 359 428 386 b 427 387 427 388 427 389 b 427 390 427 390 426 391 b 423 407 408 417 385 420 b 354 423 328 407 306 384 b 284 361 266 330 257 302 b 238 251 240 204 263 172 b 275 156 271 133 255 122 b 239 110 216 114 205 130 b 168 181 162 253 189 326 b 213 391 246 434 283 459 b 319 484 358 494 391 491 b 444 487 485 455 496 408 b 525 320 477 207 412 134 b 465 142 510 163 545 187 b 580 210 606 236 623 256 b 635 272 658 274 673 261 z"},"(":{"x_min":0,"x_max":300,"ha":300,"o":"m 35 -100 b 12 -100 -1 -85 -1 -64 b -5 61 27 210 84 369 b 137 518 211 660 298 781 b 313 796 333 800 348 789 b 367 778 370 758 359 739 b 274 624 202 486 151 343 b 94 194 66 55 70 -64 b 70 -85 52 -100 35 -100 z"},"C":{"x_min":0,"x_max":572,"ha":572,"o":"m 618 275 b 635 267 643 247 635 228 b 604 163 561 107 509 66 b 452 22 393 0 332 0 b 265 0 207 28 164 79 b 134 115 114 159 104 210 b 57 223 20 252 -3 292 b -27 331 -36 378 -27 430 b -15 497 25 558 84 599 b 100 610 122 606 133 590 b 144 574 140 553 124 542 b 81 511 51 466 42 418 b 31 361 54 312 97 288 b 98 311 100 333 104 356 b 120 448 162 533 226 597 b 290 664 367 700 443 700 b 527 700 583 650 590 570 b 595 502 564 422 507 354 b 442 278 351 226 248 209 b 228 206 210 218 207 237 b 204 256 217 275 236 278 b 329 294 403 341 452 397 b 500 452 524 515 520 564 b 516 608 490 630 443 630 b 386 630 327 601 276 548 b 223 493 188 421 173 344 b 158 256 174 176 218 124 b 248 88 286 70 332 70 b 377 70 425 89 467 122 b 509 155 546 202 571 258 b 579 275 599 283 618 275 z"},"W":{"x_min":0,"x_max":710,"ha":710,"o":"m 756 285 b 775 278 784 258 777 239 l 725 97 b 716 70 696 45 672 28 b 648 11 619 0 591 0 b 560 0 536 12 519 35 b 516 39 513 43 511 48 b 472 17 426 0 379 0 b 332 0 297 17 273 51 b 270 55 269 58 266 63 b 223 24 170 0 117 0 b 70 0 35 17 11 51 b -13 86 -17 132 0 179 l 104 467 b 111 486 131 495 150 488 b 169 481 179 461 172 442 l 67 155 b 58 128 59 107 70 92 b 81 75 102 72 117 72 b 145 72 176 84 203 104 b 230 123 251 150 262 179 l 443 676 b 450 695 470 705 489 698 b 508 691 517 671 510 652 l 331 159 l 331 157 b 330 156 330 156 330 155 b 321 129 321 108 332 92 b 344 75 364 72 379 72 b 408 72 440 84 466 104 b 492 123 513 150 524 179 l 705 676 b 712 695 732 705 751 698 b 770 691 780 671 773 652 l 608 200 l 579 99 b 579 99 579 98 578 97 b 575 88 575 81 578 76 b 581 72 588 72 591 72 b 618 72 649 95 658 122 l 710 263 b 717 282 737 292 756 285 z m 67 410 b 47 389 19 378 -10 378 b -41 378 -68 390 -88 410 b -108 430 -120 456 -120 487 b -120 518 -108 546 -88 566 b -68 586 -41 599 -10 599 l 152 599 l 154 603 b 163 630 171 648 177 657 b 188 674 194 683 215 691 b 225 695 236 697 247 697 b 271 697 292 688 308 673 b 323 657 332 636 332 613 b 332 565 294 527 247 527 l -10 527 b -31 527 -48 510 -48 487 b -48 466 -31 449 -10 449 b -1 449 8 453 17 460 b 24 467 33 471 42 471 b 61 471 78 454 78 435 b 78 426 74 417 67 410 z m 239 623 b 236 619 233 610 229 599 l 247 599 b 256 599 260 604 260 613 b 260 622 256 626 247 626 b 246 626 244 626 243 625 b 242 624 240 624 239 623 z"},"A":{"x_min":0,"x_max":785,"ha":785,"o":"m 826 287 b 845 284 858 265 855 246 b 854 244 852 234 847 217 b 837 182 811 149 790 129 b 769 108 741 90 702 79 b 683 74 661 71 637 71 b 620 71 605 72 594 75 l 575 23 b 570 8 557 0 542 0 b 539 0 535 1 530 2 b 511 9 501 28 508 47 l 527 99 b 494 118 467 144 443 173 b 419 202 398 235 378 267 b 349 312 322 354 290 386 b 257 417 219 436 167 436 b 116 436 71 415 39 383 b 6 350 -15 304 -15 253 b -15 202 6 157 39 125 b 71 92 116 71 167 71 b 235 71 297 108 329 168 b 338 185 360 192 377 183 b 394 174 402 152 391 135 b 347 51 263 0 167 0 b 98 0 35 29 -11 75 b -57 121 -86 184 -86 253 b -86 322 -57 387 -11 433 b 35 479 98 507 167 507 b 226 507 272 489 310 461 b 348 433 378 395 405 355 b 442 442 495 521 558 585 b 631 660 707 700 771 700 l 804 700 b 821 700 833 692 838 675 b 843 660 837 645 824 636 b 811 624 799 611 786 592 b 779 582 774 571 769 558 l 641 205 b 636 190 623 182 608 182 b 603 182 599 183 596 184 b 577 191 568 210 575 229 l 703 582 b 708 595 713 606 719 617 b 674 597 623 555 575 499 b 527 442 484 369 455 289 b 454 286 452 284 451 283 b 476 244 502 209 531 183 b 559 157 593 141 637 141 b 690 141 730 160 758 198 b 769 213 775 228 779 239 b 782 246 784 252 785 258 b 788 277 807 290 826 287 z"},"f":{"x_min":0,"x_max":357,"ha":357,"o":"m 403 280 b 422 273 430 253 423 234 b 423 233 422 230 419 224 b 413 212 402 191 386 167 b 377 154 367 142 356 129 b 294 57 222 21 139 21 l 129 21 b 126 21 122 21 119 22 b 123 -2 121 -28 110 -59 l 74 -159 b 53 -214 -3 -275 -67 -275 b -127 -275 -151 -228 -150 -187 b -149 -167 -146 -149 -141 -134 l -51 115 b -50 115 -50 115 -50 116 l 136 628 b 147 657 168 686 199 709 b 230 732 267 747 310 747 b 363 747 389 724 404 704 b 423 676 427 639 414 603 l 377 501 b 376 498 374 491 369 479 l 351 431 b 343 409 332 378 317 338 b 294 274 256 225 215 186 b 174 147 128 120 88 103 b 103 94 127 93 139 93 b 199 93 253 120 301 174 b 320 195 334 217 343 234 b 347 242 350 249 353 254 l 357 261 b 364 280 384 288 403 280 z m 203 603 l 42 161 b 75 176 117 198 156 231 b 195 263 230 307 250 363 b 265 402 276 433 284 455 b 291 476 297 492 301 503 b 305 515 308 522 309 525 l 347 628 b 352 642 352 654 345 663 b 338 674 322 675 310 675 b 282 675 259 665 240 650 b 221 635 208 618 203 603 z m 7 -134 l 43 -34 b 52 -7 49 15 41 32 b 32 48 18 61 9 69 l -74 -159 b -77 -168 -79 -177 -79 -184 b -79 -192 -78 -198 -76 -201 b -75 -201 -74 -201 -73 -202 b -72 -203 -70 -203 -67 -203 b -38 -203 -5 -167 7 -134 z"},"Q":{"x_min":0,"x_max":637,"ha":637,"o":"m 723 72 b 742 68 755 50 752 31 l 744 2 b 735 -32 709 -65 689 -85 b 669 -105 640 -122 603 -133 b 584 -138 563 -141 539 -141 b 479 -141 434 -120 396 -88 b 358 -56 328 -14 301 27 b 253 11 197 2 132 2 b 88 2 35 16 -7 41 b -49 66 -80 105 -80 154 b -80 191 -63 225 -35 248 b -7 271 33 285 80 285 l 83 285 b 146 285 193 264 232 232 b 271 200 301 158 329 115 b 380 142 427 180 469 248 b 511 316 553 420 554 500 b 554 579 521 629 460 629 b 408 629 349 598 297 548 b 244 498 197 428 169 353 l 165 339 b 163 332 161 324 160 317 b 156 298 137 286 118 290 b 99 294 87 313 91 332 b 93 341 95 350 98 359 l 101 373 b 101 374 101 374 102 375 l 102 376 b 135 467 191 547 255 606 b 319 665 392 700 460 700 b 513 700 559 678 588 635 b 635 567 636 462 593 347 b 573 292 548 237 512 186 b 476 134 429 88 368 55 b 391 20 413 -11 441 -34 b 468 -57 499 -70 539 -70 b 590 -70 629 -52 656 -16 b 667 -1 674 12 677 24 l 682 43 b 685 62 704 75 723 72 z m -9 154 b -9 130 12 110 41 96 b 69 82 104 73 132 73 b 180 73 223 78 261 89 b 238 124 214 155 186 178 b 158 201 124 214 83 214 l 80 214 b 59 214 36 210 20 200 b 3 190 -9 174 -9 154 z"},"w":{"x_min":0,"x_max":648,"ha":648,"o":"m 694 280 b 713 273 722 253 715 234 l 681 140 b 670 113 650 78 621 50 b 592 22 555 0 512 0 b 480 0 452 13 436 37 b 433 41 430 45 429 48 b 393 19 348 0 304 0 b 261 0 229 15 208 46 b 207 47 205 49 204 52 b 167 20 121 0 74 0 b 33 0 -2 15 -22 46 b -45 79 -48 118 -33 163 l 78 467 b 85 486 105 496 124 489 b 143 482 152 462 145 443 l 35 139 b 27 118 27 100 36 87 b 45 74 62 71 74 71 b 98 71 125 82 148 99 b 171 115 189 138 198 163 l 309 467 b 316 486 335 496 354 489 b 373 482 383 462 376 443 l 265 139 b 257 118 257 100 266 87 b 277 74 292 71 304 71 b 328 71 355 82 378 99 b 401 115 419 138 428 163 l 428 164 l 539 467 b 546 486 566 496 585 489 b 604 482 613 462 606 443 l 495 140 b 487 116 486 89 494 78 b 495 77 496 75 499 74 b 501 72 505 71 512 71 b 527 71 546 79 566 95 b 585 111 603 133 614 164 l 648 258 b 655 277 675 287 694 280 z"},"-":{"x_min":0,"x_max":367,"ha":367,"o":"m 301 236 l 66 236 b 46 236 30 252 30 272 b 30 292 46 308 66 308 l 301 308 b 321 308 337 292 337 272 b 337 252 321 236 301 236 z"},"E":{"x_min":0,"x_max":449,"ha":449,"o":"m 488 285 b 508 281 521 263 518 244 b 506 173 465 112 405 69 b 345 25 267 0 182 0 b 123 0 70 24 31 63 b -8 102 -32 155 -32 214 b -32 269 -11 319 22 356 b 55 393 103 419 155 426 b 154 427 153 429 152 431 b 151 433 150 435 149 436 b 57 451 -1 516 -1 609 b -1 629 15 645 35 645 b 54 645 70 629 70 609 b 70 564 89 538 114 523 b 138 508 168 505 191 505 b 252 505 297 520 328 540 b 359 559 374 582 374 599 b 374 611 364 619 348 625 b 339 628 327 629 311 629 b 264 629 223 599 207 556 b 200 537 181 527 162 534 b 143 541 133 561 140 580 b 167 652 234 700 311 700 b 350 700 382 691 407 674 b 433 654 446 629 446 599 b 446 556 420 514 373 483 b 346 464 303 443 239 436 b 259 418 283 409 311 409 b 331 409 347 393 347 373 b 347 354 331 338 311 338 b 280 338 253 344 230 357 b 229 356 227 356 225 356 l 182 356 b 142 356 107 341 81 315 b 55 289 39 253 39 214 b 39 174 55 139 81 113 b 107 87 142 71 182 71 b 250 71 314 91 363 127 b 410 160 439 206 447 255 b 451 275 469 288 488 285 z"},"s":{"x_min":0,"x_max":427,"ha":427,"o":"m 473 287 b 492 280 501 261 494 242 l 487 226 b 486 223 484 217 481 208 l 467 168 b 455 129 433 87 403 55 b 373 23 333 0 288 0 b 265 0 250 7 239 15 b 208 2 178 0 155 0 b 144 0 127 1 110 8 b 93 15 77 28 70 51 b 61 82 77 118 108 139 b 140 159 191 166 242 123 b 243 122 245 120 247 119 l 251 115 b 267 136 268 157 257 181 b 245 204 226 228 203 253 l 168 288 b 149 307 130 325 114 344 l 70 216 b 63 200 52 192 36 192 b 33 192 29 193 24 194 b 5 201 -5 220 2 239 l 81 467 b 88 486 108 496 127 489 b 146 482 156 462 149 443 l 145 433 b 144 431 145 428 147 423 b 148 418 152 412 157 405 b 172 385 194 363 218 339 b 247 311 277 280 301 247 b 324 214 339 178 336 141 b 334 118 325 97 310 76 b 333 84 351 103 367 125 b 382 147 392 171 399 190 b 410 222 416 240 420 251 l 425 262 b 426 264 426 265 427 266 b 438 285 454 294 473 287 z m 155 72 b 168 72 179 73 188 74 b 175 83 164 85 153 81 b 146 78 144 76 141 73 b 143 72 148 72 155 72 z"},">":{"x_min":0,"x_max":363,"ha":363,"o":"m 36 0 b 25 0 15 4 8 13 b -4 28 -2 51 13 64 l 242 256 l 158 447 b 150 466 157 486 176 494 b 195 502 216 495 224 476 l 319 260 b 326 245 322 229 309 218 l 59 8 b 52 3 44 0 36 0 z"},"l":{"x_min":0,"x_max":262,"ha":262,"o":"m 91 0 b 39 0 11 25 -4 46 b -20 70 -27 98 -27 127 b -27 156 -21 185 -13 209 l 158 676 b 165 695 185 705 204 698 b 223 691 232 671 225 652 l 55 184 b 48 165 44 146 44 129 b 44 111 48 97 55 87 b 60 80 68 72 91 72 b 130 72 162 96 183 116 b 210 143 232 176 244 209 l 262 259 b 269 278 289 287 308 280 b 327 273 337 253 330 234 l 312 184 b 296 141 268 99 233 64 b 188 21 141 0 91 0 z"},"8":{"x_min":0,"x_max":502,"ha":502,"o":"m 492 525 b 475 478 440 437 397 410 b 408 401 417 392 425 380 b 456 335 461 275 438 211 b 417 152 374 100 322 62 b 270 24 209 0 149 0 b 89 0 41 23 10 66 b -22 111 -27 172 -4 236 b 27 320 98 389 181 424 b 158 459 154 503 171 550 b 187 591 217 629 254 657 b 291 684 335 700 378 700 b 422 700 458 682 481 650 b 505 617 509 572 492 525 z m 424 550 b 433 574 433 594 422 609 b 411 625 393 628 378 628 b 350 628 320 617 295 598 b 270 578 248 553 239 525 b 230 501 230 481 241 465 b 252 450 270 447 285 447 b 313 447 343 458 368 478 b 393 497 413 522 424 550 z m 366 339 b 350 362 321 374 285 374 b 241 374 194 355 154 326 b 114 297 80 255 64 211 b 49 171 50 134 69 107 b 86 84 112 72 149 72 b 193 72 240 91 281 121 b 321 151 355 192 371 236 b 386 276 383 314 366 339 z"},"\\":{"x_min":0,"x_max":406,"ha":406,"o":"m 261 289 b 292 253 310 203 310 147 b 310 47 257 -55 168 -131 b 131 -163 78 -197 6 -224 b -66 -251 -157 -269 -270 -269 l -1222 -269 l -1243 -329 b -1250 -345 -1261 -353 -1277 -353 b -1280 -353 -1284 -352 -1289 -351 b -1308 -344 -1317 -324 -1310 -305 l -1251 -140 b -1244 -121 -1224 -112 -1205 -119 b -1186 -126 -1177 -145 -1184 -164 l -1196 -197 l -270 -197 b -167 -197 -86 -181 -22 -157 b 42 -134 89 -104 122 -76 b 195 -13 239 68 239 147 b 239 179 231 212 212 237 b 193 262 162 279 118 279 b 97 279 76 257 65 228 b 58 209 40 198 21 205 b 2 212 -9 231 -2 250 b 17 310 66 350 118 350 b 178 350 226 330 261 289 z m -1382 -119 b -1363 -126 -1354 -145 -1361 -164 l -1420 -329 b -1427 -345 -1438 -353 -1454 -353 b -1457 -353 -1461 -352 -1466 -351 b -1485 -344 -1494 -324 -1487 -305 l -1475 -269 l -2409 -269 b -2484 -269 -2536 -298 -2571 -327 b -2589 -342 -2602 -355 -2610 -367 b -2619 -379 -2623 -385 -2623 -386 b -2630 -398 -2641 -404 -2655 -404 b -2664 -404 -2684 -397 -2689 -378 b -2694 -359 -2691 -357 -2668 -324 b -2645 -292 -2601 -251 -2532 -220 b -2497 -205 -2456 -197 -2409 -197 l -1449 -197 l -1428 -140 b -1421 -121 -1401 -112 -1382 -119 z"},"e":{"x_min":0,"x_max":397,"ha":397,"o":"m 132 0 b 75 0 32 20 4 60 b -17 89 -23 124 -22 160 b -21 195 -12 229 -1 258 b 23 323 63 382 110 424 b 157 466 210 491 259 491 b 300 491 329 479 347 462 b 365 445 372 421 372 400 b 372 349 335 288 272 240 b 208 189 129 161 49 158 b 48 111 69 83 97 76 b 111 73 123 71 132 71 b 189 71 247 90 295 120 b 342 150 379 191 396 239 b 403 258 423 268 442 261 b 461 254 471 234 464 215 b 441 152 395 99 336 61 b 277 23 205 0 132 0 z m 259 420 b 228 420 191 401 156 369 b 120 336 87 289 67 233 l 66 232 b 66 231 66 231 65 230 b 104 234 138 244 166 257 b 193 270 213 284 228 296 b 279 335 301 377 301 400 b 301 403 301 408 296 412 b 293 414 289 416 284 418 b 278 419 270 420 259 420 z"},"b":{"x_min":0,"x_max":468,"ha":468,"o":"m 514 281 b 533 274 543 254 536 235 b 516 182 473 142 427 115 b 381 87 331 74 300 74 l 283 74 b 278 74 272 74 267 75 b 218 28 162 0 110 0 b 23 0 -16 71 -19 143 b -20 178 -13 217 2 259 l 154 676 b 161 695 181 705 200 698 b 219 691 228 671 221 652 l 149 454 b 182 479 220 494 263 494 b 348 494 388 423 392 351 b 395 279 362 203 329 151 b 353 158 383 170 409 189 b 435 208 457 232 468 260 b 475 279 495 288 514 281 z m 303 259 b 330 330 321 378 305 401 b 295 415 281 422 263 422 b 231 422 195 403 167 374 b 139 345 119 304 119 261 b 119 228 131 203 155 184 b 174 167 203 156 240 150 b 265 181 288 216 303 259 z m 110 72 b 130 72 151 79 173 93 b 122 112 79 142 59 199 b 47 148 55 111 68 92 b 77 79 91 72 110 72 z"},"%":{"x_min":0,"x_max":484,"ha":484,"o":"m 479 693 b 495 681 499 659 487 643 l 30 15 b 23 5 13 0 1 0 b -16 0 -31 10 -34 30 b -36 40 -34 49 -28 57 l 429 685 b 441 701 463 705 479 693 z m 67 347 b 30 347 -5 362 -29 387 b -54 412 -70 445 -70 484 b -70 521 -54 556 -29 581 b -5 605 30 620 67 620 b 104 620 139 605 164 581 b 188 556 204 521 204 484 b 204 445 188 412 164 387 b 139 362 104 347 67 347 z m 67 549 b 31 549 2 520 2 484 b 2 448 31 419 67 419 b 103 419 132 448 132 484 b 132 520 103 549 67 549 z m 417 384 b 454 384 489 368 514 344 b 538 319 554 284 554 247 b 554 210 538 175 514 151 b 489 126 454 110 417 110 b 380 110 345 126 321 151 b 296 175 280 210 280 247 b 280 284 296 319 321 344 b 345 368 380 384 417 384 z m 417 182 b 453 182 482 211 482 247 b 482 283 453 312 417 312 b 381 312 352 283 352 247 b 352 211 381 182 417 182 z"},"m":{"x_min":0,"x_max":642,"ha":642,"o":"m 688 280 b 707 273 716 253 709 234 l 675 140 b 664 113 644 78 615 50 b 586 22 549 0 506 0 b 473 0 446 14 430 37 b 417 56 412 78 412 101 b 411 124 416 146 423 165 l 491 352 b 498 375 498 392 490 404 b 479 417 464 420 452 420 b 428 420 401 409 378 393 b 355 376 337 353 328 328 l 217 23 b 212 8 199 0 184 0 b 181 0 177 1 172 2 b 153 9 143 29 150 48 l 261 352 b 269 373 269 391 260 404 b 249 417 234 420 222 420 b 198 420 171 409 148 393 b 125 376 107 353 98 328 l -13 23 b -18 8 -31 0 -46 0 b -49 0 -54 1 -59 2 b -78 9 -87 29 -80 48 l 31 352 b 32 355 33 358 34 361 l 37 368 b 38 369 38 371 38 372 b 38 373 38 374 39 375 b 42 384 44 393 44 401 b 44 408 43 414 41 417 b 41 419 38 420 33 420 b 13 420 -3 436 -3 455 b -3 475 13 491 33 491 b 62 491 84 480 100 458 l 103 454 b 103 452 104 450 105 449 b 140 476 181 491 222 491 b 263 491 297 474 318 445 b 319 443 321 441 322 438 b 359 471 405 491 452 491 b 495 491 527 476 548 445 b 571 413 574 371 558 328 l 490 140 b 481 116 480 90 488 78 b 489 77 490 75 493 74 b 495 73 499 72 506 72 b 527 72 551 85 569 104 b 587 123 601 145 608 165 l 642 259 b 649 278 669 287 688 280 z"},"#":{"x_min":0,"x_max":540,"ha":540,"o":"m 459 520 l 558 520 b 578 520 594 503 594 484 b 594 464 578 448 558 448 l 433 448 l 373 283 l 474 283 b 494 283 510 267 510 247 b 510 227 494 211 474 211 l 347 211 l 279 24 b 274 9 260 0 245 0 b 242 0 238 1 233 2 b 214 9 204 29 211 48 l 271 211 l 155 211 l 86 24 b 81 9 68 0 53 0 b 50 0 45 1 40 2 b 21 9 12 29 19 48 l 78 211 l -16 211 b -36 211 -52 227 -52 247 b -52 267 -36 283 -16 283 l 104 283 l 164 448 l 68 448 b 48 448 32 464 32 484 b 32 503 48 520 68 520 l 191 520 l 248 676 b 255 695 275 705 294 698 b 313 691 322 671 315 652 l 267 520 l 383 520 l 440 676 b 447 695 467 705 486 698 b 505 691 514 671 507 652 z m 297 283 l 357 448 l 241 448 l 181 283 z"},",":{"x_min":0,"x_max":228,"ha":228,"o":"m 38 -126 b 35 -126 30 -125 25 -124 b 6 -117 -3 -97 4 -78 l 59 74 b 66 93 86 103 105 96 b 124 89 134 69 127 50 l 71 -102 b 66 -117 53 -126 38 -126 z"},"n":{"x_min":0,"x_max":414,"ha":414,"o":"m 460 280 b 479 273 488 253 481 234 l 447 140 b 436 113 416 78 387 50 b 358 22 321 0 278 0 b 245 0 218 14 201 37 b 188 56 183 78 183 101 b 183 124 187 146 194 165 l 263 352 b 270 375 270 392 261 404 b 252 417 236 420 223 420 b 199 420 173 409 150 393 b 127 376 109 353 100 328 l -11 23 b -16 8 -29 0 -44 0 b -47 0 -52 1 -57 2 b -76 9 -85 29 -78 48 l 33 352 b 34 355 35 358 36 361 l 39 368 b 40 369 40 371 40 372 b 40 373 40 374 41 375 b 44 384 46 393 46 401 b 46 408 45 414 43 417 b 43 419 40 420 35 420 b 15 420 -1 436 -1 455 b -1 475 15 491 35 491 b 64 491 86 480 102 458 l 105 454 b 105 452 106 450 107 449 b 142 476 183 491 223 491 b 266 491 299 476 320 445 b 343 413 345 371 330 328 l 261 140 b 253 116 252 90 260 78 b 261 77 262 75 264 74 b 266 73 271 72 278 72 b 299 72 322 85 340 104 b 358 123 372 145 380 165 l 414 259 b 421 278 441 287 460 280 z"},"h":{"x_min":0,"x_max":487,"ha":487,"o":"m 532 281 b 551 274 560 254 553 235 l 519 141 b 508 113 488 78 459 50 b 430 22 392 0 349 0 b 281 0 252 54 253 102 b 254 125 258 146 265 165 l 321 320 b 344 383 315 422 259 422 b 224 422 189 408 158 385 b 126 361 100 329 88 296 l -11 24 b -18 8 -29 0 -45 0 b -48 0 -52 1 -57 2 b -76 9 -86 29 -79 48 l 150 676 b 157 695 177 705 196 698 b 215 691 224 671 217 652 l 149 464 b 184 483 222 494 259 494 b 312 494 351 475 377 438 b 404 399 408 348 389 296 l 332 141 b 324 117 323 90 331 78 b 332 77 333 75 336 74 b 338 73 342 72 349 72 b 372 72 394 85 412 104 b 430 123 444 145 451 165 l 486 260 b 493 279 513 288 532 281 z"},"z":{"x_min":0,"x_max":378,"ha":378,"o":"m 424 283 b 443 276 453 255 446 236 l 423 173 b 400 110 358 64 307 28 b 255 -8 196 -33 139 -57 l 94 -182 b 83 -209 67 -237 44 -258 b 14 -287 -17 -301 -50 -301 b -111 -301 -136 -252 -135 -211 b -135 -171 -123 -136 -95 -106 b -68 -76 -32 -53 11 -33 b 32 -23 55 -13 78 -3 b 79 8 78 15 75 19 b 74 19 74 19 73 20 b 72 21 69 21 66 21 b 46 21 29 38 29 58 b 29 78 46 95 66 95 b 90 95 127 124 142 165 l 211 354 b 212 357 213 360 212 361 b 211 362 211 363 211 364 b 206 375 186 384 177 387 l 174 388 l 128 406 b 124 395 120 382 116 369 l 62 223 b 55 204 34 194 15 201 b -4 208 -13 229 -6 248 l 47 394 b 50 402 53 410 55 417 l 61 438 b 18 465 2 493 -2 517 b -7 540 -1 558 2 565 b 17 602 58 621 94 608 b 105 604 120 594 131 575 b 142 555 149 524 144 479 l 200 457 b 205 456 219 451 235 441 b 250 431 267 416 276 396 b 287 375 288 353 279 329 l 211 140 b 198 105 174 72 142 48 b 146 41 148 34 149 27 b 194 47 238 68 274 96 b 310 123 338 155 354 198 l 377 261 b 384 280 405 290 424 283 z m 25 -157 l 47 -97 b -4 -121 -45 -147 -57 -182 b -64 -201 -64 -218 -59 -225 b -59 -226 -56 -227 -50 -227 b -35 -227 -19 -217 -6 -204 b 7 -191 18 -173 25 -157 z"},"B":{"x_min":0,"x_max":642,"ha":642,"o":"m 440 342 b 528 293 587 197 588 88 b 588 0 556 -80 499 -139 b 437 -201 354 -232 251 -232 b 163 -232 91 -198 41 -149 b -9 -100 -38 -34 -38 29 b -39 101 -8 176 41 227 b 77 263 118 283 163 286 l 257 542 b 264 561 283 571 302 564 b 321 557 331 537 324 518 l 193 158 b 186 143 187 111 202 91 b 212 76 230 68 256 68 b 295 68 327 100 327 140 b 327 171 306 200 275 208 b 256 215 244 233 251 252 b 256 271 276 282 295 277 b 356 260 399 204 399 140 b 399 100 383 65 357 39 b 331 13 295 -3 256 -3 b 193 -3 160 26 143 50 b 128 71 121 95 119 119 b 117 143 119 166 126 183 l 134 206 b 99 190 69 161 49 109 b 28 57 29 6 49 -38 b 69 -83 110 -124 164 -145 b 191 -156 220 -161 251 -161 b 334 -161 400 -137 448 -89 b 492 -44 517 19 516 87 b 516 147 493 201 455 241 b 417 280 365 304 309 304 b 289 304 274 320 274 340 b 274 360 289 376 309 376 b 350 376 389 390 417 413 b 445 436 462 467 462 502 b 462 537 445 568 417 591 b 389 614 350 628 309 628 b 266 628 229 614 202 591 b 174 568 157 537 157 502 b 157 484 162 466 171 449 b 180 432 174 410 157 401 b 140 390 119 397 108 414 b 93 443 85 472 85 502 b 85 557 110 606 151 642 b 191 678 248 700 309 700 b 370 700 427 678 468 642 b 508 606 533 557 533 502 b 533 435 496 377 440 342 z"},"K":{"x_min":0,"x_max":815,"ha":815,"o":"m 863 278 b 882 269 889 248 880 231 b 849 164 807 109 753 67 b 697 23 635 0 575 0 b 507 0 448 28 405 80 b 380 109 362 143 351 184 l 337 146 b 322 105 297 70 263 46 b 229 22 188 8 144 8 b 88 8 37 31 0 68 b -37 105 -60 157 -60 213 b -60 269 -37 320 0 357 b 37 394 88 417 144 417 b 199 417 248 396 287 359 b 294 352 298 343 298 334 b 298 315 282 298 263 298 b 253 298 244 301 237 308 b 212 333 181 346 144 346 b 108 346 74 331 50 307 b 26 283 11 249 11 213 b 11 176 26 142 50 118 b 74 94 108 79 144 79 b 201 79 252 114 271 169 l 271 170 l 420 582 b 426 600 434 616 443 629 l 260 629 b 240 629 223 611 223 590 b 223 570 240 553 260 553 b 271 553 280 557 287 564 b 294 571 303 575 312 575 b 331 575 348 558 348 539 b 348 530 344 521 337 514 b 316 493 290 482 260 482 b 229 482 203 494 184 514 b 164 534 152 561 152 590 b 152 621 164 648 184 668 b 203 688 229 700 260 700 l 521 700 b 537 700 551 690 555 675 b 560 660 554 644 541 635 b 528 624 516 611 503 592 b 496 582 491 571 486 558 l 428 398 b 483 419 521 474 564 531 b 593 571 626 613 664 645 b 702 677 747 700 803 700 b 823 700 839 684 839 665 b 839 645 823 629 803 629 b 764 629 732 612 704 586 b 675 560 648 525 621 489 b 594 453 566 414 532 383 b 498 351 459 328 411 320 b 402 241 420 172 459 125 b 489 89 528 71 575 71 b 620 71 669 90 711 123 b 753 156 789 204 816 260 b 824 279 844 286 863 278 z"},"R":{"x_min":0,"x_max":602,"ha":602,"o":"m 635 502 b 635 450 614 403 581 368 b 548 332 502 309 450 305 b 489 248 501 198 487 153 b 487 152 487 151 486 151 l 423 -26 b 406 -74 414 -106 427 -126 b 433 -137 440 -144 447 -149 l 458 -157 b 477 -165 483 -187 475 -204 b 468 -217 456 -224 443 -224 b 437 -224 432 -223 427 -221 b 404 -210 377 -186 359 -149 b 341 -113 333 -65 356 -2 l 419 174 b 424 194 418 218 406 242 b 393 266 374 288 358 307 l 296 137 b 281 97 256 63 223 39 b 190 15 150 2 107 2 b 52 2 2 25 -34 61 b -70 97 -93 147 -93 202 b -93 257 -70 307 -34 343 b 2 379 52 402 107 402 b 161 402 208 383 247 345 b 254 338 258 329 258 320 b 258 301 242 284 223 284 b 213 283 204 287 197 294 b 172 319 142 331 107 331 b 71 331 39 317 16 294 b -8 270 -22 238 -22 202 b -22 166 -8 134 16 111 b 39 87 71 73 107 73 b 163 73 210 108 229 160 l 337 458 b 350 502 379 534 403 555 b 415 566 426 574 435 579 b 454 589 460 595 478 588 b 496 581 505 560 498 542 b 495 533 489 526 480 522 l 471 517 b 458 510 440 497 424 475 b 415 464 409 451 404 436 l 404 434 l 386 386 b 403 379 420 375 437 375 b 472 375 503 389 527 412 b 550 435 564 467 564 502 b 564 537 550 568 527 592 b 503 615 472 629 437 629 b 402 629 370 615 347 592 b 324 568 310 537 310 502 b 310 483 294 467 275 467 b 255 467 239 483 239 502 b 239 557 261 606 297 642 b 333 678 382 700 437 700 b 492 700 541 678 577 642 b 613 606 635 557 635 502 z"},"T":{"x_min":0,"x_max":458,"ha":458,"o":"m 740 852 b 769 852 797 840 817 820 b 837 800 849 772 849 743 b 849 712 837 685 817 665 b 797 645 769 632 740 632 l 521 632 b 509 621 488 598 476 563 l 321 140 b 306 99 280 64 246 40 b 212 15 170 1 126 1 b 70 1 18 24 -19 61 b -56 98 -80 150 -80 207 b -80 263 -56 315 -19 352 b 18 389 70 413 126 413 b 181 413 231 393 270 354 b 277 347 281 339 281 330 b 281 310 265 293 246 293 b 236 293 227 296 220 303 b 195 328 161 341 126 341 b 89 341 55 326 31 302 b 7 278 -8 244 -8 207 b -8 170 7 136 31 112 b 55 87 89 72 126 72 b 185 72 234 108 253 163 b 254 163 254 163 254 164 l 409 587 b 414 604 422 620 432 635 l 248 635 b 227 635 210 618 210 595 b 210 575 227 558 248 558 b 259 558 268 562 275 569 b 282 576 291 580 300 580 b 319 580 336 563 336 544 b 336 524 316 506 290 495 b 277 489 263 486 248 486 b 217 486 191 498 171 518 b 151 538 139 564 139 595 b 139 626 151 653 171 673 b 191 693 217 706 248 706 l 740 704 b 760 704 778 722 778 743 b 778 764 761 781 740 781 b 729 781 720 777 713 769 b 706 762 697 759 688 759 b 669 759 652 775 652 795 b 652 804 656 813 663 820 b 684 841 710 852 740 852 z"},"P":{"x_min":0,"x_max":735,"ha":735,"o":"m 491 700 b 563 700 628 671 676 624 b 724 576 753 510 753 438 b 753 366 724 301 676 253 b 628 205 563 176 491 176 b 451 176 412 185 375 204 l 350 135 b 335 95 310 61 277 37 b 244 13 203 0 160 0 b 105 0 55 23 19 59 b -17 95 -40 145 -40 200 b -40 256 -17 306 19 342 b 55 378 105 401 160 401 b 213 401 263 381 300 344 b 315 329 316 308 301 293 b 294 286 285 282 276 282 b 266 282 257 286 250 293 b 225 317 195 329 160 329 b 124 329 93 315 70 292 b 46 268 32 236 32 200 b 32 164 46 133 70 110 b 93 86 124 72 160 72 b 216 72 265 106 282 158 b 282 159 282 159 283 159 l 390 457 b 405 502 432 534 457 555 b 469 566 480 574 489 579 b 508 589 513 595 532 588 b 551 580 560 559 553 541 b 550 532 543 525 534 521 l 525 516 b 512 509 494 496 478 474 b 469 463 463 450 458 435 l 458 434 l 399 272 b 427 256 458 248 491 248 b 543 248 592 270 626 304 b 660 338 681 386 681 438 b 681 490 660 539 626 573 b 592 607 543 628 491 628 b 439 628 391 607 357 573 b 323 539 301 490 301 438 b 301 418 285 402 265 402 b 245 402 229 418 229 438 b 229 510 258 576 306 624 b 354 671 419 700 491 700 z"},"t":{"x_min":0,"x_max":303,"ha":303,"o":"m 349 281 b 368 274 378 254 371 235 b 367 223 358 201 345 176 b 332 151 314 122 293 95 b 241 32 182 0 115 0 b 48 0 15 28 -1 51 b -28 88 -30 140 -10 196 l 82 449 l 43 449 b 23 449 7 465 7 484 b 7 504 23 520 43 520 l 108 520 l 165 676 b 172 695 192 705 211 698 b 230 691 239 671 232 652 l 185 520 l 289 520 b 308 520 325 504 325 484 b 325 465 308 449 289 449 l 159 449 l 58 171 b 52 155 49 140 49 126 b 49 98 58 72 115 72 b 172 72 216 111 248 154 b 279 197 298 244 303 260 b 310 279 330 288 349 281 z"},"M":{"x_min":0,"x_max":858,"ha":858,"o":"m 720 32 l 719 32 b 716 25 715 17 715 10 b 715 -23 742 -50 775 -50 b 795 -50 811 -66 811 -86 b 811 -105 795 -121 775 -121 b 739 -121 706 -106 683 -82 b 659 -59 644 -26 644 10 b 644 25 647 41 652 57 l 838 571 b 845 590 844 605 837 615 b 829 626 815 628 804 628 b 783 628 759 619 739 604 b 719 589 702 569 694 546 b 693 544 692 541 689 537 l 507 32 b 502 17 488 9 473 9 b 468 9 464 10 461 11 b 442 18 432 38 439 57 l 625 571 b 632 590 631 605 624 615 b 616 626 602 628 591 628 b 570 628 546 619 526 604 b 506 589 489 569 481 546 l 461 489 l 448 449 l 336 139 b 321 98 296 63 261 39 b 226 14 185 0 141 0 b 84 0 32 24 -5 61 b -42 98 -66 150 -66 207 b -66 264 -42 316 -5 353 b 32 390 84 413 141 413 b 196 413 246 394 285 355 b 300 340 301 319 286 304 b 279 297 270 293 261 293 b 251 293 242 296 235 303 b 209 329 178 342 141 342 b 104 342 70 327 46 303 b 21 278 6 244 6 207 b 6 170 21 135 46 111 b 70 86 104 71 141 71 b 198 71 250 107 269 163 l 381 473 b 404 537 407 588 391 611 b 390 614 386 617 380 622 b 374 626 363 628 347 628 b 327 628 309 610 309 589 b 309 568 326 551 347 551 b 367 551 383 535 383 515 b 383 495 367 479 347 479 b 316 479 290 491 270 511 b 250 531 238 558 238 589 b 238 620 250 647 270 667 b 290 687 316 700 347 700 b 404 700 435 674 450 653 b 451 650 453 648 454 646 b 455 644 457 642 458 639 b 494 676 544 700 591 700 b 632 700 662 685 683 656 b 683 656 684 655 685 652 b 720 683 763 700 804 700 b 845 700 875 685 896 656 b 916 625 920 586 905 546 z"},"g":{"x_min":0,"x_max":487,"ha":487,"o":"m 529 259 b 545 252 558 236 550 213 l 550 212 l 533 164 b 510 103 470 59 422 24 b 373 -11 316 -36 263 -60 l 218 -184 b 207 -212 189 -241 164 -263 b 139 -285 108 -300 76 -300 b 48 -300 24 -290 9 -267 b -14 -235 -9 -190 2 -159 b 15 -122 44 -92 80 -68 b 116 -44 161 -25 206 -6 l 222 37 b 183 10 145 -3 108 -3 b 21 -3 -18 67 -21 139 b -24 211 8 291 47 348 b 86 405 134 449 186 473 b 211 485 236 491 261 491 b 304 491 338 474 362 440 l 364 437 b 365 436 365 434 366 433 l 379 467 b 386 486 406 496 425 489 b 444 482 453 462 446 443 l 369 232 l 369 231 l 298 35 b 335 52 370 73 399 98 b 428 122 452 152 465 189 l 482 236 l 483 238 b 492 259 513 266 529 259 z m 108 69 b 137 69 176 88 212 121 b 248 153 282 200 302 256 b 327 327 319 376 303 399 b 293 412 279 419 261 419 b 230 419 193 400 157 368 b 121 335 87 288 67 232 b 42 160 50 112 66 89 b 75 76 89 69 108 69 z m 151 -159 l 172 -99 b 121 -123 82 -149 70 -184 b 63 -203 63 -219 68 -226 b 68 -227 71 -228 76 -228 b 99 -228 136 -200 151 -159 z"},"j":{"x_min":0,"x_max":245,"ha":245,"o":"m 190 552 b 171 559 162 579 169 598 l 182 634 b 189 653 209 662 228 655 b 247 648 256 628 249 609 l 236 574 b 231 559 218 550 203 550 b 199 550 195 551 190 552 z m 291 278 b 310 271 319 251 312 232 l 287 164 b 264 101 223 57 172 22 b 121 -13 63 -38 7 -62 l -37 -183 b -48 -211 -67 -240 -91 -262 b -116 -284 -147 -300 -179 -300 b -236 -300 -263 -253 -262 -212 b -261 -172 -250 -138 -223 -109 b -196 -80 -160 -57 -116 -37 b -95 -27 -73 -17 -50 -7 l 123 467 b 130 486 150 495 169 488 b 188 481 198 461 191 442 l 41 31 b 81 50 119 70 150 95 b 181 120 205 150 220 189 l 245 257 b 252 276 272 285 291 278 z m -105 -159 l -83 -100 b -134 -124 -173 -150 -186 -183 b -189 -192 -191 -201 -191 -209 b -191 -217 -190 -223 -187 -226 b -187 -227 -187 -227 -186 -227 b -185 -228 -183 -228 -179 -228 b -167 -228 -152 -221 -138 -209 b -124 -197 -112 -179 -105 -159 z"},"i":{"x_min":0,"x_max":183,"ha":183,"o":"m 143 552 b 124 559 115 579 122 598 l 135 633 b 142 652 161 661 180 654 b 199 647 209 628 202 609 l 188 574 b 184 559 170 550 155 550 b 152 550 148 551 143 552 z m 230 280 b 249 273 258 253 251 234 l 217 139 b 206 112 186 78 157 50 b 128 22 91 0 48 0 b 16 0 -12 13 -28 37 b -55 74 -51 126 -36 165 l 75 467 b 82 486 101 495 120 488 b 139 481 149 462 142 443 l 31 139 b 23 116 22 90 29 78 b 30 77 32 75 35 74 b 37 72 41 71 48 71 b 61 71 82 79 101 95 b 120 111 138 134 150 165 l 184 258 b 191 277 211 287 230 280 z"},"y":{"x_min":0,"x_max":502,"ha":502,"o":"m 552 279 b 568 272 581 256 573 233 l 573 231 l 556 184 b 533 121 489 74 437 37 b 384 0 322 -28 263 -55 l 216 -185 b 205 -213 187 -242 162 -264 b 137 -286 106 -301 74 -301 b 46 -301 22 -291 7 -268 b -16 -236 -12 -191 0 -160 b 13 -123 42 -94 79 -69 b 115 -44 159 -23 206 -2 l 217 29 b 182 8 143 -4 106 -4 b 7 -4 -28 69 -31 126 b -33 154 -28 184 -17 215 l 74 466 b 81 485 101 495 120 488 b 139 481 149 461 142 442 l 50 190 b 35 151 37 115 53 92 b 68 72 89 68 106 68 b 139 68 178 84 211 112 b 243 139 270 175 285 215 l 377 467 b 384 486 404 496 423 489 b 442 482 452 462 445 443 l 353 190 l 298 40 b 341 61 381 83 414 111 b 447 138 473 169 488 209 b 494 226 498 237 501 244 b 503 251 504 255 505 256 l 505 257 b 506 257 506 257 506 258 b 515 279 536 286 552 279 z m 149 -160 l 171 -98 b 120 -125 80 -150 67 -185 b 64 -194 62 -203 62 -210 b 62 -218 63 -224 66 -227 b 66 -228 69 -229 74 -229 b 97 -229 134 -201 149 -160 z"},"@":{"x_min":0,"x_max":683,"ha":683,"o":"m 627 613 b 676 542 683 443 644 338 b 633 309 611 271 580 240 b 549 209 510 186 465 186 b 430 186 404 199 386 225 b 383 229 381 232 380 235 b 348 204 310 186 275 186 b 210 186 185 238 182 286 b 179 334 201 388 227 425 b 253 462 283 491 318 507 b 335 514 352 518 369 518 b 397 518 420 508 437 487 l 495 466 l 446 333 b 437 306 436 279 445 266 b 446 265 448 263 451 262 b 453 260 458 259 465 259 b 489 259 512 274 532 295 b 552 315 568 341 576 362 b 607 446 603 520 568 571 b 541 609 501 628 448 628 b 383 628 311 599 243 544 b 175 488 121 415 93 338 b 62 254 66 179 101 128 b 127 91 167 72 220 72 b 276 72 338 95 398 136 b 414 147 437 143 448 126 b 460 110 456 87 439 76 b 367 25 292 0 220 0 b 144 0 81 31 41 87 b -7 158 -14 257 25 362 b 58 453 118 536 198 600 b 278 664 367 700 448 700 b 524 700 588 669 627 613 z m 275 259 b 294 259 316 273 336 293 b 355 313 372 339 381 364 b 393 400 391 427 383 439 b 380 443 376 445 369 445 b 350 445 328 431 309 411 b 289 391 272 364 263 340 b 251 304 253 277 261 265 b 264 261 268 259 275 259 z"},".":{"x_min":0,"x_max":202,"ha":202,"o":"m 102 0 b 99 0 95 1 90 2 b 71 9 61 29 68 48 l 79 77 b 86 96 106 106 125 99 b 144 92 153 72 146 53 l 136 24 b 129 8 118 0 102 0 z"},"p":{"x_min":0,"x_max":461,"ha":461,"o":"m 506 259 b 527 251 534 230 527 213 l 527 211 l 510 164 b 498 132 474 91 442 57 b 409 23 368 -3 321 -3 b 278 -3 246 12 227 39 b 188 12 149 -3 110 -3 b 67 -3 33 14 9 48 b 8 51 6 53 5 55 l -82 -185 b -89 -204 -109 -214 -128 -207 b -147 -200 -157 -180 -150 -161 l 45 374 b 48 383 50 392 50 400 b 50 408 49 414 47 417 b 46 417 46 417 45 418 b 44 419 41 419 38 419 b 19 419 3 435 3 455 b 3 475 19 491 38 491 b 67 491 90 480 106 458 b 111 450 116 440 119 427 b 166 467 216 491 263 491 b 350 491 389 420 392 348 b 395 276 364 202 334 154 b 319 129 302 107 283 88 b 284 83 286 79 291 75 b 296 71 306 69 321 69 b 340 69 363 81 386 102 b 409 123 429 153 442 189 b 448 205 452 217 455 224 b 457 231 458 235 459 236 l 460 236 l 460 238 b 469 259 490 266 506 259 z m 110 69 b 139 69 178 88 214 121 b 250 153 284 200 304 256 b 329 327 321 376 305 399 b 295 412 281 419 263 419 b 232 419 195 400 159 368 b 123 335 90 288 70 232 l 69 232 b 44 161 52 113 68 90 b 78 76 92 69 110 69 z"},"X":{"x_min":0,"x_max":626,"ha":626,"o":"m 615 691 b 630 678 631 655 618 640 l 64 12 b 57 4 48 0 37 0 b 18 0 2 14 1 34 b 0 44 3 53 10 60 l 295 383 l 285 595 b 282 606 281 613 273 621 b 268 625 261 627 251 627 b 223 627 196 611 173 588 b 150 564 132 536 124 512 l 70 364 b 63 345 43 336 24 343 b 5 350 -5 370 2 389 l 56 537 b 68 568 92 609 125 642 b 158 674 202 699 251 699 b 299 699 336 673 351 629 b 354 621 355 612 356 603 l 356 600 l 364 460 l 564 688 b 577 703 600 704 615 691 z m 675 322 b 694 315 704 294 697 275 l 669 198 b 652 151 621 105 584 69 b 536 23 485 0 432 0 b 364 0 318 40 309 111 l 309 113 l 303 224 b 302 244 318 261 337 262 b 357 263 374 248 375 228 l 381 119 b 384 98 392 87 401 80 b 410 73 421 72 432 72 b 455 72 488 84 520 109 b 552 133 582 171 601 222 l 629 300 b 636 319 656 329 675 322 z"},"*":{"x_min":0,"x_max":245,"ha":245,"o":"m 225 647 b 236 628 229 607 212 598 l 175 576 l 186 565 b 201 550 202 529 187 514 b 180 507 171 503 161 503 b 151 503 143 506 136 513 l 130 520 l 121 495 b 114 479 103 471 87 471 b 84 471 80 472 75 473 b 60 478 51 491 51 506 b 46 504 41 503 36 503 b 8 503 -4 530 1 549 b 4 558 9 565 18 570 l 55 592 l 44 603 b 29 618 28 639 43 654 b 58 669 79 670 94 655 l 100 648 l 109 673 b 116 692 136 702 155 695 b 170 690 179 677 179 662 b 196 669 216 663 225 647 z"},"Y":{"x_min":0,"x_max":493,"ha":493,"o":"m 548 299 b 564 294 577 277 570 254 l 569 252 l 552 205 b 529 142 485 96 433 59 b 381 22 320 -6 261 -33 l 229 -122 b 213 -168 212 -176 193 -204 b 174 -232 150 -255 120 -268 b 105 -275 89 -278 73 -278 b 16 -278 -11 -231 -10 -190 b -9 -150 3 -116 30 -87 b 57 -58 94 -33 138 -12 b 159 -1 182 9 205 20 b 205 21 205 22 206 23 l 206 25 b 178 11 149 4 119 4 b 72 4 37 21 13 54 b -11 89 -15 135 2 182 l 102 458 b 109 477 129 487 148 480 b 167 473 176 453 169 434 l 69 158 b 60 132 60 111 71 95 b 83 79 103 75 119 75 b 147 75 179 87 205 107 b 231 126 252 153 263 182 b 264 183 264 184 264 185 b 264 185 264 186 265 187 b 306 302 351 423 385 516 l 427 629 b 438 658 443 674 443 675 b 450 694 470 704 489 697 b 508 690 517 670 510 651 b 485 584 461 517 436 448 b 415 389 391 324 367 257 l 331 158 b 318 125 307 93 296 62 b 381 103 456 152 485 229 b 491 246 495 257 498 264 b 500 271 501 275 502 277 l 502 278 b 511 301 532 306 548 299 z m 69 412 b 48 391 22 380 -8 380 b -39 380 -66 392 -86 412 b -106 432 -118 458 -118 489 b -118 520 -106 548 -86 568 b -66 588 -39 600 -8 600 l 154 600 l 155 605 b 164 632 172 649 178 658 b 183 667 187 672 189 674 b 206 691 225 699 248 699 b 295 699 333 661 333 614 b 333 567 295 529 248 529 l -8 529 b -29 529 -46 512 -46 489 b -46 468 -29 451 -8 451 b 2 451 11 455 19 463 b 26 470 35 474 44 474 b 63 474 80 457 80 438 b 80 428 76 419 69 412 z m 240 624 b 237 620 234 611 230 600 l 248 600 b 255 600 261 607 261 614 b 261 623 257 627 248 627 b 245 627 242 626 240 624 z m 147 -137 b 148 -135 151 -129 155 -118 b 158 -107 163 -93 170 -75 b 119 -102 79 -127 67 -162 b 64 -171 62 -180 62 -187 b 62 -195 63 -201 65 -204 b 66 -205 66 -205 67 -205 b 68 -206 70 -206 73 -206 b 88 -206 104 -197 117 -184 b 130 -171 142 -153 147 -137 z"},"c":{"x_min":0,"x_max":420,"ha":420,"o":"m 132 0 b 80 0 35 21 8 60 b -4 76 -15 100 -18 133 b -22 165 -17 206 2 258 b 26 323 65 382 113 424 b 160 466 213 491 262 491 b 299 491 327 480 346 457 b 358 442 373 417 366 378 b 363 358 345 344 326 347 b 306 350 292 368 295 388 b 296 391 296 395 296 400 b 296 404 295 407 292 410 b 287 417 277 420 262 420 b 231 420 193 401 158 369 b 122 336 89 289 69 233 b 48 176 47 129 66 101 b 85 74 115 71 132 71 b 192 71 255 93 308 127 b 360 161 402 207 421 258 b 428 277 448 287 467 280 b 486 273 495 253 488 234 b 464 170 413 111 349 69 b 284 27 207 0 132 0 z"},"!":{"x_min":0,"x_max":202,"ha":202,"o":"m 217 698 b 236 691 245 671 238 652 l 69 187 b 64 172 50 163 35 163 b 32 163 28 164 23 165 b 4 172 -5 192 2 211 l 171 676 b 178 695 198 705 217 698 z m 4 113 b 23 106 32 86 25 67 l 9 24 b 4 9 -9 0 -24 0 b -27 0 -31 1 -36 2 b -55 9 -65 29 -58 48 l -42 92 b -35 111 -15 120 4 113 z"},"/":{"x_min":0,"x_max":310,"ha":310,"o":"m 6 -99 b 2 -99 -2 -98 -7 -97 b -26 -90 -35 -70 -28 -51 l 273 775 b 280 794 300 804 319 797 b 338 790 347 770 340 751 l 39 -75 b 34 -90 21 -99 6 -99 z"},"[":{"x_min":0,"x_max":833,"ha":833,"o":""},"6":{"x_min":0,"x_max":496,"ha":496,"o":"m 497 583 b 502 564 491 544 472 539 b 453 532 434 544 427 563 b 415 606 390 628 353 628 b 312 628 260 602 210 555 b 160 507 112 440 79 360 b 131 413 197 446 260 446 b 360 446 397 372 401 309 b 405 246 380 180 342 129 b 304 77 256 39 203 17 b 176 6 150 0 124 0 b 80 0 45 15 19 45 b 14 50 10 55 6 61 b -41 129 -42 239 2 362 b 37 457 92 542 156 603 b 219 663 289 700 353 700 b 424 700 474 658 497 583 z m 260 374 b 224 374 184 356 149 326 b 113 296 83 255 67 211 b 50 166 50 123 69 98 b 70 97 72 95 73 92 b 82 83 94 76 109 73 l 116 73 b 118 72 121 72 124 72 b 160 72 201 91 236 121 b 271 151 302 192 318 236 b 334 281 334 322 315 349 b 303 366 285 374 260 374 z"},"r":{"x_min":0,"x_max":356,"ha":356,"o":"m 219 -2 b 187 -2 159 11 142 35 b 129 54 124 76 124 99 b 123 122 128 144 135 163 l 200 343 b 203 348 203 352 201 354 b 196 365 178 373 171 376 l 169 377 l 129 393 b 127 388 125 382 123 376 l 117 358 l 65 214 b 58 195 38 186 19 193 b 0 200 -10 220 -3 239 l 49 382 l 64 426 b 23 454 8 485 5 513 b 2 540 15 574 48 590 b 65 598 82 599 99 592 b 107 588 119 582 128 570 b 137 557 146 538 147 510 b 148 495 148 481 145 464 l 196 443 b 200 442 214 436 228 427 b 242 418 257 404 266 385 b 276 365 277 343 268 318 l 203 138 b 194 114 193 88 201 76 b 202 75 204 73 206 72 b 208 71 212 70 219 70 b 242 70 263 83 282 102 b 301 121 315 143 322 163 l 356 258 b 363 277 384 286 403 279 b 422 272 431 252 424 233 l 389 138 b 380 111 358 76 330 48 b 301 20 263 -2 219 -2 z"},"2":{"x_min":0,"x_max":430,"ha":430,"o":"m 304 0 l -5 0 b -34 0 -50 32 -33 56 l 299 510 b 308 521 314 534 319 546 b 328 573 327 594 316 609 b 305 626 284 629 269 629 b 240 629 209 617 183 598 b 157 578 134 551 123 522 b 112 491 115 468 131 452 b 146 439 146 417 133 402 b 126 395 117 391 108 391 b 99 391 90 394 83 401 b 46 436 37 490 57 546 b 73 589 104 627 142 655 b 180 683 225 700 269 700 b 315 700 350 683 374 649 b 398 614 402 569 385 522 b 378 503 369 485 356 468 l 65 71 l 304 71 b 324 71 340 55 340 35 b 340 16 324 0 304 0 z"},"{":{"x_min":0,"x_max":833,"ha":833,"o":""},"9":{"x_min":0,"x_max":504,"ha":504,"o":"m 451 639 b 498 571 499 459 455 338 b 420 243 365 158 302 98 b 238 37 168 0 104 0 b 33 0 -17 41 -40 116 b -45 136 -34 156 -15 161 b 4 168 23 156 30 137 b 42 94 67 72 104 72 b 145 72 197 98 247 146 b 297 193 345 260 378 340 b 326 287 260 253 197 253 b 97 253 59 328 55 391 b 51 454 78 520 116 572 b 154 623 201 662 254 684 b 281 695 307 700 333 700 b 377 700 412 685 438 655 b 443 650 447 645 451 639 z m 197 326 b 233 326 273 345 309 375 b 344 405 374 445 390 489 b 398 512 402 533 402 553 b 402 573 397 589 388 602 b 387 603 386 604 386 605 l 383 608 b 374 618 362 624 347 626 b 346 627 345 627 343 627 l 341 627 b 339 628 336 628 333 628 b 297 628 256 610 221 580 b 185 550 155 508 139 464 b 123 419 123 378 142 351 b 153 334 171 326 197 326 z"}," ":{"x_min":0,"x_max":338,"ha":338,"o":""},"I":{"x_min":0,"x_max":496,"ha":496,"o":"m 177 0 b 120 0 68 24 31 61 b -6 98 -30 150 -30 207 b -30 264 -6 316 31 353 b 68 390 120 414 177 414 b 232 414 282 394 321 355 b 328 348 332 339 332 330 b 332 310 316 293 297 293 b 287 293 278 297 271 304 b 246 328 212 342 177 342 b 140 342 106 327 82 303 b 57 278 42 244 42 207 b 42 170 57 136 82 112 b 106 87 140 72 177 72 b 234 72 286 107 305 163 l 455 581 b 462 600 470 615 479 628 l 294 628 b 273 628 256 610 256 589 b 256 568 273 551 294 551 b 305 551 314 555 321 562 b 328 569 337 573 347 573 b 366 573 383 556 383 537 b 383 527 379 519 372 512 b 350 490 324 479 294 479 b 263 479 236 491 216 511 b 196 531 184 558 184 589 b 184 620 196 647 216 667 b 236 687 263 700 294 700 l 558 700 b 574 700 588 690 593 675 b 597 660 591 643 578 635 l 572 630 b 564 622 552 610 540 590 b 533 580 528 569 523 556 l 372 139 b 357 98 331 63 297 39 b 263 14 221 0 177 0 z"},"H":{"x_min":0,"x_max":883,"ha":883,"o":"m 925 337 b 945 333 958 315 954 295 b 954 293 951 283 946 265 b 935 229 910 196 889 175 b 868 154 838 137 799 126 b 780 120 758 117 733 117 b 714 117 694 120 675 125 l 638 24 b 631 8 620 0 604 0 b 601 0 597 1 592 2 b 573 9 563 29 570 48 l 609 154 b 549 193 508 256 471 316 b 442 361 414 405 381 437 b 348 468 309 488 257 488 b 206 488 159 468 126 434 b 93 400 72 354 72 302 b 72 251 93 204 126 171 b 159 138 206 117 257 117 b 329 117 391 156 423 220 b 432 239 452 245 471 236 b 490 227 496 207 487 188 b 443 100 356 45 257 45 b 186 45 122 74 75 121 b 28 168 0 231 0 302 b 0 373 28 437 75 484 b 122 531 186 559 257 559 b 314 559 361 542 399 515 b 437 487 467 451 494 412 l 618 757 l 425 757 b 404 757 387 739 387 718 b 387 697 404 680 425 680 b 436 680 445 684 452 691 b 459 698 468 702 477 702 b 496 702 513 685 513 666 b 513 647 494 628 467 617 b 454 612 440 609 425 609 b 394 609 367 621 347 641 b 327 661 315 687 315 718 b 315 749 327 776 347 796 b 367 816 394 829 425 829 l 669 829 b 681 829 691 824 699 814 b 706 803 707 792 703 781 l 543 337 b 568 297 594 260 624 233 b 654 205 688 189 733 189 b 787 189 828 208 856 246 b 867 261 874 276 878 288 b 881 295 883 301 884 307 b 887 327 906 340 925 337 z m 680 244 b 661 251 651 271 658 290 l 757 560 b 764 579 784 588 803 581 b 822 574 831 554 824 535 l 726 265 b 719 250 708 242 692 242 b 687 242 683 243 680 244 z"},"4":{"x_min":0,"x_max":521,"ha":521,"o":"m 468 263 b 485 254 493 233 482 214 b 482 213 479 209 473 200 b 460 183 432 160 385 144 b 361 135 332 131 297 131 l 295 131 l 255 24 b 250 9 236 0 221 0 b 218 0 214 1 209 2 b 190 9 180 29 187 48 l 355 508 l 73 204 l 156 204 b 176 204 193 188 193 168 b 193 148 176 131 156 131 l -10 131 b -25 131 -36 138 -43 153 b -50 166 -47 181 -36 192 l 423 688 b 435 701 454 704 469 695 b 484 686 491 668 484 651 l 321 205 b 358 208 382 219 398 229 b 405 234 411 238 414 242 l 419 248 b 428 267 449 274 468 263 z"},"D":{"x_min":0,"x_max":673,"ha":673,"o":"m 348 700 b 429 700 505 661 558 598 b 611 534 645 446 645 350 b 645 254 611 166 558 103 b 505 39 429 0 348 0 l 345 0 b 289 0 222 30 154 59 b 151 60 148 62 145 63 l 137 66 b 118 50 92 29 63 16 b 34 3 2 -4 -26 8 b -43 15 -70 35 -70 87 b -70 131 -51 153 -35 164 b -11 180 21 179 58 171 b 95 162 137 144 182 124 l 227 106 b 257 93 286 83 311 76 b 324 73 335 71 345 71 l 348 71 b 411 71 467 102 508 153 b 549 204 574 273 574 350 b 574 427 549 496 508 547 b 467 598 411 629 348 629 b 203 629 105 559 70 464 b 55 421 56 386 75 359 b 93 335 120 323 157 323 b 176 323 192 307 192 287 b 192 268 176 252 157 252 b 97 252 48 275 17 318 b -14 363 -19 424 4 488 b 28 553 72 607 132 644 b 191 680 265 700 348 700 z m 189 143 b 174 143 158 153 155 173 b 153 182 155 191 160 199 b 181 230 198 261 210 294 b 228 343 243 384 255 416 l 282 491 b 289 510 293 523 296 530 l 300 540 b 307 559 326 569 345 562 b 364 555 374 536 367 517 b 367 516 366 513 363 506 b 360 499 356 486 349 467 b 336 430 313 369 276 269 b 261 230 242 193 218 158 b 211 148 201 143 189 143 z m 3 73 b 6 72 13 73 23 76 b 32 79 45 86 60 96 b 57 97 53 99 49 100 b 31 105 19 108 13 107 b 7 106 4 105 4 104 l 2 101 b 1 99 1 94 1 87 b 1 79 2 74 3 73 z"},"0":{"x_min":0,"x_max":544,"ha":544,"o":"m 124 0 b 76 0 34 21 6 61 b -41 129 -42 239 2 362 b 37 457 92 542 156 603 b 219 663 289 700 353 700 b 401 700 443 678 470 639 b 517 571 519 459 475 338 b 440 243 385 158 322 98 b 258 37 188 0 124 0 z m 353 628 b 310 628 255 599 203 548 b 151 497 102 425 70 338 b 34 239 33 149 66 102 b 80 82 99 72 124 72 b 167 72 222 101 274 152 b 326 203 375 275 407 362 b 443 461 444 551 411 598 b 397 618 378 628 353 628 z"},"F":{"x_min":0,"x_max":566,"ha":566,"o":"m 735 700 b 755 700 771 684 771 664 b 771 644 755 628 735 628 l 541 628 b 529 617 506 595 493 556 l 451 441 l 499 441 b 519 441 535 425 535 405 b 535 386 519 370 499 370 l 425 370 l 342 139 b 327 98 301 63 267 39 b 233 14 191 0 147 0 b 90 0 38 24 1 61 b -36 98 -60 150 -60 207 b -60 264 -36 316 1 353 b 38 390 90 414 147 414 b 202 414 252 394 291 355 b 306 340 307 319 292 304 b 285 297 276 293 267 293 b 257 293 248 297 241 304 b 216 328 182 342 147 342 b 110 342 76 327 52 303 b 27 278 12 244 12 207 b 12 170 27 136 52 112 b 76 87 110 72 147 72 b 204 72 256 107 275 163 l 349 370 l 295 370 b 275 370 259 386 259 405 b 259 425 275 441 295 441 l 375 441 l 425 581 b 432 600 440 615 449 628 l 264 628 b 243 628 226 610 226 589 b 226 568 243 551 264 551 b 275 551 284 555 291 562 b 298 569 307 573 317 573 b 336 573 353 556 353 537 b 353 527 349 519 342 512 b 320 490 294 479 264 479 b 233 479 206 491 186 511 b 166 531 154 558 154 589 b 154 620 166 647 186 667 b 206 687 233 700 264 700 z"},"k":{"x_min":0,"x_max":491,"ha":491,"o":"m -40 0 b -51 0 -66 5 -73 22 b -77 30 -77 39 -74 48 l 155 676 b 162 695 182 705 201 698 b 220 691 229 671 222 652 l 56 196 b 83 215 113 233 148 245 b 129 276 127 313 142 354 b 157 393 185 427 219 452 b 253 477 293 492 333 492 b 376 492 408 477 429 446 b 452 414 455 372 439 329 b 426 293 401 260 370 236 b 339 212 302 196 265 192 l 311 86 b 316 81 337 73 361 73 b 376 73 394 79 410 91 b 426 102 440 119 448 140 l 492 261 b 499 280 519 289 538 282 b 557 275 566 255 559 236 l 515 115 b 503 83 481 54 454 34 b 426 13 393 1 361 1 b 301 1 264 27 249 50 b 249 50 248 51 247 54 l 198 167 l 188 182 b 127 165 78 124 44 88 b 27 70 14 54 5 40 b -4 26 -9 19 -9 18 b -16 7 -28 0 -40 0 z m 333 420 b 309 420 283 410 260 394 b 237 377 219 354 210 329 b 203 308 203 292 210 280 l 222 261 b 231 262 240 263 249 263 b 273 263 299 273 322 290 b 345 306 363 329 372 354 b 379 375 379 392 371 405 b 360 418 345 420 333 420 z"},"u":{"x_min":0,"x_max":420,"ha":420,"o":"m 466 279 b 485 272 494 253 487 234 l 453 140 b 442 113 422 78 393 50 b 364 22 327 0 284 0 b 250 0 224 12 207 37 l 204 43 b 203 44 202 46 201 48 b 164 19 120 0 76 0 b 35 0 0 15 -20 46 b -43 79 -46 118 -31 163 l 80 467 b 87 486 107 496 126 489 b 145 482 154 462 147 443 l 37 139 b 29 118 29 100 38 87 b 47 74 64 71 76 71 b 100 71 127 82 150 99 b 173 115 191 138 200 163 l 200 164 l 311 467 b 318 486 337 496 356 489 b 375 482 385 462 378 443 l 267 140 b 259 116 258 89 266 78 b 267 77 268 75 271 74 b 273 72 277 71 284 71 b 297 71 318 79 338 95 b 357 111 375 133 386 164 l 420 258 b 427 277 447 286 466 279 z"},"U":{"x_min":0,"x_max":447,"ha":447,"o":"m 493 285 b 512 278 522 258 515 239 l 463 97 b 452 70 433 45 409 28 b 385 11 357 0 329 0 b 298 0 272 12 257 35 b 254 39 251 43 249 48 b 210 17 164 0 117 0 b 70 0 35 17 11 51 b -13 86 -17 132 0 179 l 107 475 b 114 494 134 503 153 496 b 172 489 182 469 175 450 l 67 155 b 58 128 59 107 70 92 b 81 75 102 72 117 72 b 145 72 176 84 203 104 b 230 123 251 150 262 179 l 443 676 b 450 695 470 705 489 698 b 508 691 517 671 510 652 l 346 200 l 317 99 b 316 99 316 98 316 97 b 313 88 312 81 315 76 b 318 72 326 72 329 72 b 354 72 385 95 396 122 l 447 263 b 454 282 474 292 493 285 z m 67 410 b 47 389 19 378 -10 378 b -41 378 -68 390 -88 410 b -108 430 -120 456 -120 487 b -120 518 -108 546 -88 566 b -68 586 -41 599 -10 599 l 152 599 l 154 603 b 163 630 171 648 177 657 b 188 674 194 683 215 691 b 225 695 236 697 247 697 b 271 697 292 688 308 673 b 323 657 332 636 332 613 b 332 565 294 527 247 527 l -10 527 b -31 527 -48 510 -48 487 b -48 466 -31 449 -10 449 b -1 449 8 453 17 460 b 24 467 33 471 42 471 b 61 471 78 454 78 435 b 78 426 74 417 67 410 z m 239 623 b 236 619 233 610 229 599 l 247 599 b 256 599 260 604 260 613 b 260 622 256 626 247 626 b 246 626 244 626 243 625 b 242 624 240 624 239 623 z"},"o":{"x_min":0,"x_max":457,"ha":457,"o":"m 503 279 b 522 272 532 253 525 234 b 506 186 474 137 427 101 b 380 64 321 39 250 39 l 241 39 b 238 39 235 39 232 40 b 193 15 150 0 107 0 b 22 0 -18 70 -21 142 b -24 213 9 293 47 350 b 85 406 132 449 184 473 b 209 485 234 491 259 491 b 322 491 368 450 383 385 b 387 366 375 347 355 343 b 336 339 317 351 313 370 b 306 403 288 420 259 420 b 228 420 191 401 156 369 b 120 336 87 289 67 233 b 40 164 49 115 65 92 b 75 78 89 71 107 71 b 120 71 134 74 149 79 b 144 83 141 88 138 93 b 111 130 107 181 126 234 b 155 314 214 356 273 352 b 313 349 345 323 354 287 b 374 226 341 158 317 121 b 388 145 437 202 457 258 b 464 277 484 286 503 279 z m 280 203 b 289 229 291 250 286 266 l 285 268 l 284 271 b 283 277 277 280 268 280 b 267 281 266 281 265 281 b 242 281 213 262 194 209 b 183 178 183 153 196 134 b 203 125 210 120 217 117 b 245 140 268 170 280 203 z"},"N":{"x_min":0,"x_max":660,"ha":660,"o":"m 508 31 l 508 30 b 505 25 504 18 504 9 b 504 -24 531 -51 564 -51 b 584 -51 600 -67 600 -87 b 600 -107 584 -123 564 -123 b 528 -123 495 -108 471 -84 b 447 -60 432 -27 432 9 b 432 25 435 41 441 56 l 627 571 b 634 590 634 605 626 616 b 618 627 604 629 593 629 b 572 629 548 620 528 605 b 508 590 491 570 483 547 l 464 496 b 460 481 455 466 450 449 l 337 138 b 322 97 297 62 262 38 b 227 13 185 -1 141 -1 b 84 -1 32 23 -5 60 b -42 97 -66 149 -66 206 b -66 263 -42 316 -5 353 b 32 390 84 414 141 414 b 197 414 247 394 286 355 b 301 340 302 319 287 304 b 272 289 251 288 236 303 b 209 329 177 342 141 342 b 104 342 70 327 46 303 b 21 278 6 243 6 206 b 6 169 21 134 46 110 b 70 85 104 70 141 70 b 200 70 251 106 270 162 l 382 474 b 405 538 409 589 392 612 b 391 614 387 617 381 622 b 375 627 364 629 348 629 b 328 629 310 611 310 590 b 310 569 327 552 348 552 b 368 552 384 536 384 516 b 384 496 368 480 348 480 b 317 480 290 492 270 512 b 250 532 238 559 238 590 b 238 621 250 648 270 668 b 290 688 317 701 348 701 b 407 701 436 675 451 654 b 452 651 454 649 455 647 b 456 645 458 643 459 640 b 496 677 545 701 593 701 b 634 701 664 686 685 657 b 706 626 710 587 695 547 z"},"+":{"x_min":0,"x_max":604,"ha":604,"o":"m 508 280 b 528 280 544 264 544 244 b 544 224 528 208 508 208 l 344 208 l 283 42 b 278 27 265 18 250 18 b 247 18 242 19 237 20 b 218 27 209 48 216 67 l 267 208 l 129 208 b 109 208 93 224 93 244 b 93 264 109 280 129 280 l 293 280 l 354 446 b 361 465 381 474 400 467 b 419 460 429 440 422 421 l 370 280 z"},"G":{"x_min":0,"x_max":647,"ha":647,"o":"m 692 284 b 708 277 720 260 713 239 l 713 238 l 712 237 l 696 191 b 673 130 631 85 580 49 b 529 12 469 -16 412 -41 l 366 -167 b 355 -195 337 -223 313 -244 b 289 -265 260 -280 228 -280 b 171 -280 146 -235 147 -195 b 148 -156 159 -125 184 -97 b 208 -69 240 -46 280 -26 b 299 -16 320 -6 341 4 b 331 2 321 1 310 1 b 245 1 186 28 143 79 b 112 115 94 159 83 210 b 36 223 -1 252 -24 291 b -47 330 -56 377 -47 429 b -36 497 4 557 63 598 b 79 609 101 605 112 589 b 123 574 119 552 103 541 b 60 510 30 465 22 417 b 11 361 33 312 76 288 b 77 311 79 333 83 356 b 99 447 141 532 204 596 b 268 663 345 699 421 699 b 505 699 560 649 567 569 b 574 501 542 421 485 353 b 420 277 329 226 226 209 b 207 206 189 218 186 237 b 182 256 195 274 214 278 b 307 294 381 341 430 396 b 478 451 501 515 497 563 b 494 607 468 629 421 629 b 364 629 305 600 254 547 b 202 492 165 421 152 344 b 136 256 153 176 196 124 b 226 89 264 71 310 71 b 329 71 347 77 361 85 b 368 89 374 93 379 98 b 384 102 389 105 392 108 l 440 240 b 447 259 465 268 484 261 b 503 254 512 235 505 216 l 446 52 b 487 72 526 93 558 120 b 590 147 615 176 630 215 b 636 231 640 242 643 249 b 645 256 646 260 647 261 l 647 263 b 656 284 676 289 692 284 z m 300 -143 l 322 -82 b 273 -109 233 -134 221 -167 b 214 -186 216 -201 220 -208 b 220 -209 223 -210 228 -210 b 251 -210 285 -183 300 -143 z"},"q":{"x_min":0,"x_max":555,"ha":555,"o":"m 592 259 b 613 251 618 230 613 213 l 613 211 l 595 164 b 580 125 554 85 519 54 b 476 16 430 -3 381 -3 l 377 -3 b 382 -26 383 -49 372 -76 l 325 -205 b 318 -225 304 -248 284 -267 b 264 -286 237 -300 208 -300 b 157 -300 139 -262 136 -230 b 135 -214 137 -198 143 -181 l 223 37 b 184 12 146 -3 109 -3 b 22 -3 -17 68 -20 140 b -23 211 9 291 48 348 b 87 405 135 449 187 473 b 212 485 237 491 262 491 b 305 491 339 474 363 440 b 364 437 366 435 368 432 b 369 429 371 426 372 423 b 400 462 442 491 487 491 b 507 491 523 475 523 455 b 523 435 507 419 487 419 b 464 419 428 391 413 350 l 319 91 b 323 80 334 75 347 72 b 359 69 373 68 381 68 b 402 68 431 78 459 98 b 487 118 513 148 528 188 b 534 205 538 217 541 224 b 543 231 544 235 545 236 b 545 237 545 237 546 237 b 554 260 576 266 592 259 z m 109 69 b 138 69 177 88 213 121 b 249 153 282 200 302 256 l 303 256 b 328 327 320 376 304 399 b 294 412 280 419 262 419 b 231 419 193 400 158 368 b 122 335 88 288 68 232 b 43 161 51 112 67 89 b 76 76 90 69 109 69 z m 257 -181 l 304 -52 b 315 -23 302 -2 289 10 l 211 -205 b 207 -216 207 -224 208 -228 b 227 -228 249 -204 257 -181 z"},"d":{"x_min":0,"x_max":490,"ha":490,"o":"m 536 281 b 555 274 564 254 557 235 l 523 141 b 511 108 490 75 463 50 b 428 17 392 0 353 0 b 319 0 293 12 276 37 b 269 48 264 59 261 70 b 213 27 160 0 109 0 b 22 0 -17 71 -20 143 b -23 214 9 294 48 351 b 87 408 135 452 187 476 b 212 488 237 494 262 494 b 305 494 338 477 362 443 l 365 440 b 365 439 366 437 367 436 l 454 676 b 461 695 481 705 500 698 b 519 691 529 671 522 652 l 370 235 l 336 141 b 331 129 329 117 329 105 b 329 93 331 84 335 79 b 336 78 337 76 339 75 b 341 73 346 72 353 72 b 376 72 398 85 416 104 b 434 123 448 145 455 165 l 490 260 b 497 279 517 288 536 281 z m 109 72 b 138 72 177 91 213 124 b 249 156 282 203 302 259 b 329 330 320 378 304 401 b 294 415 280 422 262 422 b 231 422 193 403 158 371 b 122 338 88 291 68 235 b 43 164 51 115 67 92 b 76 79 90 72 109 72 z"},"1":{"x_min":0,"x_max":305,"ha":305,"o":"m 16 0 b 13 0 8 1 3 2 b -16 9 -25 30 -18 49 l 169 564 l 28 460 b 12 448 -11 451 -23 467 b -35 483 -31 506 -15 518 l 223 693 b 230 698 237 700 245 700 b 260 700 275 689 280 674 b 282 666 281 658 278 651 l 50 24 b 43 8 32 0 16 0 z"},"5":{"x_min":0,"x_max":442,"ha":442,"o":"m 85 0 b 72 0 59 1 47 3 b 0 12 -36 36 -59 73 b -70 89 -65 111 -48 122 b -32 133 -10 128 1 111 b 17 87 41 78 60 74 b 108 65 168 82 220 121 b 263 152 294 193 310 234 b 326 274 328 314 309 343 b 294 367 269 376 250 380 b 202 389 143 372 91 333 b 84 328 77 326 69 326 b 61 326 54 328 48 333 b 34 344 30 357 35 374 l 145 676 b 150 691 164 700 179 700 l 397 700 b 417 700 433 684 433 664 b 433 644 417 628 397 628 l 204 628 l 135 438 b 179 453 224 458 264 451 b 359 432 391 361 395 304 b 398 247 374 184 334 132 b 294 80 235 37 175 16 b 144 5 114 0 85 0 z"}}}
